<svg xmlns="http://www.w3.org/2000/svg" width="100" height="100" viewBox="0 0 100 100">
  <defs>
    <style>
      .cls-1 {
        fill: #fff;
      }

      .cls-1, .cls-2 {
        fill-rule: evenodd;
      }

      .cls-2 {
        fill: none;
        stroke: #fff;
        stroke-width: 2px;
      }
    </style>
  </defs>
  <path class="cls-1" d="M49.5,41.911A8.693,8.693,0,1,1,41.18,51,8.716,8.716,0,0,1,49.5,41.911Z"/>
  <path class="cls-2" d="M17.385,52.114a32.1,32.1,0,0,1,37.683-32.9M77.634,35.465a31.839,31.839,0,0,1-2.985,34.879m-9.109,7.9a32.237,32.237,0,0,1-30.924.725"/>
  <path class="cls-2" d="M97.747,66.458A49.514,49.514,0,0,1,54.759,99.735m-19.2-2.24A49.448,49.448,0,0,1,2.263,60.2M24.372,8.892A49.691,49.691,0,0,1,94.653,27.55"/>
</svg>
